<svg width="17" height="17" viewBox="0 0 17 17" fill="none" xmlns="http://www.w3.org/2000/svg">
<path d="M5.97022 13.328L3.43402 14.7114C3.28519 14.7926 3.15143 14.8923 3.02698 15.001C4.50566 16.2478 6.41447 17 8.50001 17C10.5702 17 12.4668 16.259 13.9413 15.0293C13.8053 14.9144 13.6578 14.8112 13.4942 14.7297L10.7783 13.3719C10.4274 13.1965 10.2058 12.8379 10.2058 12.4456V11.38C10.2821 11.2931 10.3694 11.1815 10.4627 11.0497C10.8329 10.5268 11.1129 9.95172 11.3069 9.34838C11.6553 9.24093 11.9119 8.91921 11.9119 8.53687V7.39948C11.9119 7.14929 11.8006 6.92572 11.6277 6.76919V5.12501C11.6277 5.12501 11.9654 2.56635 8.50034 2.56635C5.03522 2.56635 5.37298 5.12501 5.37298 5.12501V6.76919C5.19977 6.92572 5.08879 7.14929 5.08879 7.39948V8.53687C5.08879 8.83646 5.24628 9.10012 5.48203 9.25248C5.76622 10.4896 6.51037 11.38 6.51037 11.38V12.4193C6.51005 12.7978 6.30285 13.1464 5.97022 13.328Z" fill="#E7ECED"/>
<path d="M8.64528 0.00132679C3.95168 -0.0788619 0.0814553 3.66114 0.00126659 8.35474C-0.0442806 11.016 1.14187 13.4079 3.03047 14.9985C3.15396 14.8908 3.28644 14.792 3.43366 14.7118L5.96987 13.3284C6.30249 13.1468 6.5097 12.7982 6.5097 12.419V11.3798C6.5097 11.3798 5.76523 10.4894 5.48136 9.25221C5.24593 9.09985 5.08811 8.83651 5.08811 8.53661V7.39921C5.08811 7.14902 5.19942 6.92546 5.3723 6.76893V5.12474C5.3723 5.12474 5.03455 2.56608 8.49966 2.56608C11.9648 2.56608 11.627 5.12474 11.627 5.12474V6.76893C11.8002 6.92546 11.9112 7.14902 11.9112 7.39921V8.53661C11.9112 8.91895 11.6546 9.24067 11.3063 9.34812C11.1122 9.95146 10.8322 10.5266 10.462 11.0494C10.3687 11.1812 10.2815 11.2929 10.2051 11.3798V12.4453C10.2051 12.8376 10.4268 13.1965 10.7777 13.3717L13.4935 14.7294C13.6564 14.8109 13.8037 14.9139 13.9393 15.0284C15.7709 13.5009 16.9541 11.2172 16.9981 8.64534C17.0789 3.95174 13.3392 0.0815155 8.64528 0.00132679Z" fill="#556080"/>
</svg>
