<svg width="47" height="47" viewBox="0 0 47 47" fill="none" xmlns="http://www.w3.org/2000/svg">
<path d="M35.2127 0H11.75C5.29683 0 0 5.29683 0 11.7873V35.25C0 41.7032 5.29683 47 11.75 47H35.2127C41.7032 47 47 41.7032 47 35.2127V11.7873C47 5.29683 41.7032 0 35.2127 0ZM22.2317 9.66111C22.3063 8.50476 23.3881 8.91508 23.9476 8.84048C30.9603 9.06429 37.0032 15.3683 36.9286 22.1571C36.9286 22.8286 37.1524 23.7984 36.1452 23.7984C35.1754 23.7984 35.4365 22.7913 35.3246 22.1198C34.3921 14.9206 31.0349 11.5262 23.7238 10.4071C23.127 10.3325 22.1944 10.4444 22.2317 9.66111ZM32.7135 22.4556C31.5944 22.6048 31.8183 21.6349 31.7064 21.0008C30.9603 16.5992 29.3937 14.9952 24.8802 14.0254C24.2087 13.8762 23.1643 13.9881 23.3508 12.981C23.5 12.0111 24.4325 12.3468 25.1413 12.4214C29.6548 12.9437 33.3476 16.7857 33.3103 21.0008C33.2357 21.4484 33.5341 22.3064 32.7135 22.4556ZM29.9159 20.1429C29.9159 20.7397 29.8413 21.2992 29.1698 21.3738C28.6849 21.4484 28.3865 21.0381 28.3119 20.5532C28.1254 18.7627 27.1556 17.681 25.2905 17.3825C24.731 17.3079 24.2087 17.1214 24.4698 16.3754C24.6563 15.8905 25.104 15.8159 25.5889 15.8159C27.6032 15.7786 29.9159 18.1286 29.9159 20.1429ZM37.0032 33.9071C36.2198 36.0333 33.5714 38.1968 31.296 38.1595C30.9603 38.0849 30.3262 37.973 29.7667 37.7492C19.7698 33.5341 12.496 26.596 8.39286 16.6738C7.0127 13.354 8.46746 10.519 11.9365 9.4C12.5706 9.17619 13.1675 9.17619 13.8016 9.4C15.2937 9.92222 19.0611 15.0325 19.1357 16.5246C19.2103 17.681 18.3897 18.3151 17.6063 18.8373C16.077 19.8444 16.077 21.1127 16.7484 22.5675C18.2032 25.7754 20.7024 28.0135 23.9476 29.431C25.104 29.9532 26.2603 29.9159 27.0437 28.7222C28.4611 26.596 30.2143 26.7079 32.1167 28.0135C33.0865 28.6849 34.0563 29.319 34.9516 30.0278C36.1825 31.0349 37.7492 31.8556 37.0032 33.9071Z" fill="#FFC46A"/>
</svg>
