<svg width="45" height="45" viewBox="0 0 45 45" fill="none" xmlns="http://www.w3.org/2000/svg">
<g clip-path="url(#clip0)">
<path d="M38.4032 6.59186C29.6147 -2.19667 15.3901 -2.19799 6.60033 6.59186C-0.466941 13.659 -1.80241 24.1674 2.37578 32.536L0.059402 42.725C-0.241679 44.0493 0.94523 45.2368 2.27006 44.9357L12.4591 42.6193C27.2738 50.0159 44.9901 39.3074 44.9901 22.4934C44.9901 16.4867 42.6508 10.8395 38.4032 6.59186ZM27.1929 28.0934H13.1195C12.0994 28.0934 11.2724 27.2664 11.2724 26.2462C11.2724 25.2261 12.0994 24.3991 13.1195 24.3991H27.1929C28.213 24.3991 29.04 25.2261 29.04 26.2462C29.04 27.2664 28.213 28.0934 27.1929 28.0934ZM31.884 20.5876H13.1195C12.0994 20.5876 11.2724 19.7606 11.2724 18.7405C11.2724 17.7203 12.0994 16.8934 13.1195 16.8934H31.884C32.9042 16.8934 33.7312 17.7203 33.7312 18.7405C33.7312 19.7606 32.9041 20.5876 31.884 20.5876Z" fill="#FFC46A"/>
</g>
<defs>
<clipPath id="clip0">
<rect width="45" height="45" fill="white"/>
</clipPath>
</defs>
</svg>
