<svg width="167" height="167" viewBox="0 0 167 167" fill="none" xmlns="http://www.w3.org/2000/svg">
<circle cx="83.5" cy="83.5" r="83.5" fill="#FFC46A"/>
<g clip-path="url(#clip0)">
<g opacity="0.5">
<path opacity="0.5" d="M106.247 39.7561L59.1232 39.8706C58.8689 39.8712 58.6171 39.9217 58.3824 40.0194C58.1476 40.117 57.9344 40.2599 57.7551 40.4398C57.5757 40.6196 57.4336 40.833 57.3369 41.0677C57.2402 41.3024 57.1908 41.5538 57.1915 41.8075L57.4055 129.73C57.4061 129.984 57.4568 130.235 57.5547 130.469C57.6526 130.703 57.7958 130.916 57.9761 131.095C58.1564 131.274 58.3703 131.416 58.6055 131.512C58.8408 131.608 59.0928 131.658 59.3472 131.657L106.47 131.542C106.725 131.542 106.977 131.491 107.212 131.394C107.447 131.296 107.66 131.153 107.839 130.973C108.019 130.793 108.161 130.579 108.257 130.344C108.354 130.11 108.403 129.858 108.402 129.604L108.188 41.6817C108.187 41.4281 108.137 41.1771 108.039 40.9431C107.941 40.709 107.797 40.4966 107.617 40.3178C107.437 40.1389 107.223 39.9973 106.988 39.901C106.753 39.8046 106.501 39.7554 106.247 39.7561V39.7561Z" fill="url(#paint0_linear)"/>
</g>
<path d="M105.564 40.9565L59.8112 41.068C58.7435 41.0706 57.8802 41.9361 57.8828 43.0012L58.0922 128.489C58.0948 129.554 58.9624 130.415 60.03 130.413L105.783 130.301C106.85 130.298 107.714 129.433 107.711 128.368L107.502 42.8802C107.499 41.8152 106.631 40.9539 105.564 40.9565Z" fill="white"/>
<path opacity="0.4" d="M95.158 43.2214C95.0169 44.1691 94.5405 45.0351 93.815 45.6629C93.0895 46.2906 92.1628 46.6387 91.2025 46.6442L74.0637 46.6852C73.1041 46.6835 72.1767 46.3396 71.449 45.7155C70.7213 45.0914 70.2412 44.2284 70.0955 43.2822L61.018 43.3048C60.7705 43.3054 60.5255 43.3546 60.297 43.4496C60.0685 43.5446 59.861 43.6836 59.6864 43.8586C59.5118 44.0336 59.3734 44.2412 59.2792 44.4695C59.185 44.6979 59.1368 44.9425 59.1373 45.1894L59.3343 126.295C59.3349 126.542 59.3842 126.786 59.4796 127.014C59.5749 127.242 59.7143 127.449 59.8899 127.623C60.0655 127.798 60.2738 127.936 60.5028 128.03C60.7319 128.123 60.9773 128.171 61.2249 128.171L104.593 128.066C104.84 128.065 105.085 128.016 105.314 127.921C105.542 127.826 105.75 127.687 105.924 127.512C106.099 127.337 106.237 127.13 106.331 126.901C106.426 126.673 106.474 126.428 106.473 126.181L106.276 45.0763C106.276 44.8294 106.226 44.585 106.131 44.357C106.036 44.1291 105.897 43.9222 105.721 43.7479C105.546 43.5737 105.338 43.4357 105.109 43.3417C104.88 43.2477 104.635 43.1996 104.387 43.2002L95.158 43.2214Z" fill="#00B493"/>
<path d="M87.487 44.2493L76.9978 44.4064C76.8412 44.4087 76.7163 44.5372 76.7186 44.6934L76.7205 44.8178C76.7228 44.9739 76.8516 45.0986 77.0082 45.0963L87.4974 44.9392C87.6539 44.9368 87.7789 44.8084 87.7765 44.6522L87.7747 44.5278C87.7723 44.3717 87.6435 44.247 87.487 44.2493Z" fill="#DBDBDB"/>
<path d="M90.1285 44.8983C90.3578 44.8949 90.5409 44.7067 90.5374 44.4779C90.534 44.2492 90.3453 44.0665 90.116 44.07C89.8867 44.0734 89.7036 44.2616 89.707 44.4904C89.7105 44.7191 89.8992 44.9018 90.1285 44.8983Z" fill="#DBDBDB"/>
<g opacity="0.5">
<path opacity="0.5" d="M88.5877 104.881C88.5886 102.468 87.9632 100.096 86.7723 97.9959C85.5815 95.8956 83.8658 94.1387 81.7923 92.8962C79.7188 91.6536 77.3581 90.9679 74.9401 90.9055C72.522 90.8432 70.129 91.4065 67.9939 92.5406C65.8589 93.6747 64.0546 95.3409 62.7566 97.377C61.4587 99.4132 60.7113 101.75 60.5873 104.16C60.4633 106.569 60.9668 108.97 62.0489 111.128C63.131 113.286 64.7548 115.128 66.7622 116.474L66.7707 116.537C67.2283 116.974 67.7683 117.317 68.3594 117.545L68.3779 117.482C69.034 118.048 71.7962 118.943 74.9694 118.934H75.0389C77.0485 118.934 79.2311 118.581 81.15 117.545C81.15 117.545 81.167 117.508 81.1926 117.439C81.6786 117.211 82.1247 116.906 82.5134 116.537C82.521 116.483 82.5285 116.43 82.5361 116.378C84.4031 115.094 85.9294 113.377 86.9836 111.374C88.0377 109.372 88.5883 107.143 88.5877 104.881V104.881Z" fill="url(#paint1_linear)"/>
</g>
<path d="M74.5768 118.439C82.0823 118.439 88.1667 112.37 88.1667 104.883C88.1667 97.3953 82.0823 91.3257 74.5768 91.3257C67.0712 91.3257 60.9868 97.3953 60.9868 104.883C60.9868 112.37 67.0712 118.439 74.5768 118.439Z" fill="#F5F5F5"/>
<path d="M69.3855 110.457C69.3855 110.457 66.1471 110.722 67.0045 116.606C67.4479 117.031 67.9715 117.365 68.545 117.587L70.3662 111.438L69.3855 110.457Z" fill="#FDA57D"/>
<path d="M79.8928 110.457C79.8928 110.457 83.1313 110.722 82.2738 116.606C81.8304 117.031 81.3068 117.365 80.7333 117.587L78.9121 111.435L79.8928 110.457Z" fill="#FDA57D"/>
<path d="M69.5257 100.814C69.5257 100.814 67.9852 105.287 67.1448 104.863C67.1448 104.863 75.2542 111.851 82.4156 104.863C82.4156 104.863 81.1542 102.626 79.3331 100.809L69.5257 100.814Z" fill="#333333"/>
<path d="M74.7243 106.404C78.0516 106.404 80.749 103.713 80.749 100.394C80.749 97.0746 78.0516 94.3838 74.7243 94.3838C71.3969 94.3838 68.6996 97.0746 68.6996 100.394C68.6996 103.713 71.3969 106.404 74.7243 106.404Z" fill="#333333"/>
<path opacity="0.1" d="M79.8305 110.457H69.3245L68.3438 114.65C68.3438 114.65 67.7684 116.592 68.4855 117.446C69.2026 118.299 75.8948 120.241 80.8155 117.587C81.2447 116.469 81.2945 115.242 80.9572 114.093C80.3903 112.137 80.8155 113.952 80.8155 113.952L79.8305 110.457Z" fill="black"/>
<path opacity="0.1" d="M79.9709 110.457H69.4634L68.4827 114.65C68.4827 114.65 67.9073 116.592 68.6244 117.446C69.3415 118.299 76.0338 120.241 80.9544 117.587C81.3836 116.469 81.4334 115.242 81.0961 114.093C80.5292 112.137 80.9544 113.952 80.9544 113.952L79.9709 110.457Z" fill="black"/>
<path d="M79.8928 110.457H69.3854L68.4047 114.65C68.4047 114.65 67.8293 116.592 68.5464 117.446C69.2635 118.299 75.9557 120.241 80.8764 117.587C81.3056 116.469 81.3554 115.242 81.0181 114.093C80.4512 112.137 80.8764 113.952 80.8764 113.952L79.8928 110.457Z" fill="#6C63FF"/>
<path opacity="0.1" d="M72.6082 106.978H76.8146V111.035C76.8146 111.218 76.7785 111.399 76.7083 111.568C76.6381 111.737 76.5353 111.891 76.4057 112.02C76.2761 112.15 76.1222 112.252 75.9528 112.322C75.7834 112.392 75.6019 112.428 75.4186 112.428H74.0013C73.6311 112.428 73.276 112.281 73.0142 112.02C72.7524 111.759 72.6053 111.405 72.6053 111.035V106.978H72.6082Z" fill="black"/>
<path d="M72.6082 106.824H76.8146V110.881C76.8146 111.064 76.7785 111.245 76.7083 111.414C76.6381 111.583 76.5353 111.737 76.4057 111.866C76.2761 111.995 76.1222 112.098 75.9528 112.168C75.7834 112.238 75.6019 112.274 75.4186 112.274H74.0013C73.6311 112.274 73.276 112.127 73.0142 111.866C72.7524 111.605 72.6053 111.251 72.6053 110.881V106.824H72.6082Z" fill="#FDA57D"/>
<path opacity="0.1" d="M72.6168 107.427C73.9716 107.932 75.4629 107.936 76.8204 107.439V106.924H72.6168V107.427Z" fill="black"/>
<path d="M74.7243 107.709C78.0516 107.709 80.749 105.018 80.749 101.699C80.749 98.3795 78.0516 95.6887 74.7243 95.6887C71.3969 95.6887 68.6996 98.3795 68.6996 101.699C68.6996 105.018 71.3969 107.709 74.7243 107.709Z" fill="#FDA57D"/>
<path d="M68.9659 99.4154H80.4541C80.4541 99.4154 79.4734 94.788 75.1309 95.0835C70.7885 95.379 68.9659 99.4154 68.9659 99.4154Z" fill="#333333"/>
<path d="M68.8257 102.49C69.1349 102.49 69.3855 102.021 69.3855 101.443C69.3855 100.864 69.1349 100.395 68.8257 100.395C68.5165 100.395 68.2659 100.864 68.2659 101.443C68.2659 102.021 68.5165 102.49 68.8257 102.49Z" fill="#FDA57D"/>
<path d="M80.593 102.49C80.9022 102.49 81.1528 102.021 81.1528 101.443C81.1528 100.864 80.9022 100.395 80.593 100.395C80.2838 100.395 80.0332 100.864 80.0332 101.443C80.0332 102.021 80.2838 102.49 80.593 102.49Z" fill="#FDA57D"/>
<path opacity="0.1" d="M68.9659 99.5709H80.4541C80.4541 99.5709 79.4734 94.9436 75.1309 95.239C70.7885 95.5345 68.9659 99.5709 68.9659 99.5709Z" fill="black"/>
<g opacity="0.5">
<path opacity="0.5" d="M77.2313 68.0122C77.2305 65.5993 77.8559 63.2272 79.0467 61.1269C80.2376 59.0266 81.9533 57.2697 84.0268 56.0272C86.1003 54.7846 88.461 54.0988 90.879 54.0365C93.2971 53.9742 95.6901 54.5375 97.8251 55.6716C99.9602 56.8057 101.764 58.4719 103.062 60.508C104.36 62.5442 105.108 64.8809 105.232 67.2907C105.356 69.7005 104.852 72.1012 103.77 74.2593C102.688 76.4173 101.064 78.2591 99.0569 79.6053L99.0484 79.6675C98.5918 80.109 98.0517 80.4555 97.4596 80.6869L97.4412 80.6247C96.785 81.1902 94.0228 82.0851 90.8496 82.0766H90.7802C88.7705 82.0766 86.588 81.7232 84.669 80.6869C84.669 80.6869 84.652 80.6501 84.6265 80.5808C84.1404 80.353 83.6944 80.0485 83.3056 79.6788C83.2981 79.6251 83.2905 79.5723 83.283 79.5205C81.4144 78.2356 79.8871 76.5166 78.8329 74.5117C77.7786 72.5068 77.229 70.2762 77.2313 68.0122V68.0122Z" fill="url(#paint2_linear)"/>
</g>
<path d="M91.2407 81.5705C98.7462 81.5705 104.831 75.5009 104.831 68.0137C104.831 60.5264 98.7462 54.4568 91.2407 54.4568C83.7352 54.4568 77.6508 60.5264 77.6508 68.0137C77.6508 75.5009 83.7352 81.5705 91.2407 81.5705Z" fill="#F5F5F5"/>
<path d="M85.9134 73.1768C85.9134 73.1768 82.675 73.4411 83.5324 79.3253C83.9761 79.7498 84.4997 80.0823 85.073 80.3037L86.8941 74.1551L85.9134 73.1768Z" fill="#BE7C5E"/>
<path d="M96.4193 73.1768C96.4193 73.1768 99.6577 73.4411 98.8003 79.3253C98.3566 79.7498 97.833 80.0823 97.2598 80.3037L95.4386 74.1551L96.4193 73.1768Z" fill="#BE7C5E"/>
<path d="M86.0523 63.5333C86.0523 63.5333 85.8029 64.2572 85.45 65.0885C84.679 66.9264 85.5591 73.9544 87.403 74.7023C89.4721 75.5506 92.1932 76.0822 95.0206 75.0543C97.4767 74.1608 98.235 66.1474 96.4974 64.2035C96.2933 63.9744 96.0807 63.7468 95.8582 63.5262L86.0523 63.5333Z" fill="#333333"/>
<path d="M91.2506 69.1249C94.578 69.1249 97.2753 66.4342 97.2753 63.1149C97.2753 59.7956 94.578 57.1049 91.2506 57.1049C87.9233 57.1049 85.226 59.7956 85.226 63.1149C85.226 66.4342 87.9233 69.1249 91.2506 69.1249Z" fill="#333333"/>
<path opacity="0.1" d="M96.3584 73.1768H85.851L84.8703 77.3701C84.8703 77.3701 84.2949 79.3112 85.012 80.1651C85.7291 81.0191 92.4213 82.9602 97.342 80.3065C97.7712 79.1889 97.821 77.9616 97.4837 76.813C96.9168 74.8563 97.342 76.6717 97.342 76.6717L96.3584 73.1768Z" fill="black"/>
<path opacity="0.1" d="M96.4973 73.1768H85.9899L85.0092 77.3701C85.0092 77.3701 84.4338 79.3112 85.1509 80.1651C85.868 81.0191 92.5602 82.9602 97.4809 80.3065C97.9101 79.1889 97.9599 77.9616 97.6226 76.813C97.0557 74.8563 97.4809 76.6717 97.4809 76.6717L96.4973 73.1768Z" fill="black"/>
<path d="M96.4194 73.1768H85.9134L84.9326 77.3701C84.9326 77.3701 84.3572 79.3112 85.0744 80.1651C85.7915 81.0191 92.4837 82.9602 97.4043 80.3065C97.8335 79.1889 97.8833 77.9616 97.5461 76.813C96.9792 74.8563 97.4043 76.6717 97.4043 76.6717L96.4194 73.1768Z" fill="#F55F44"/>
<path opacity="0.1" d="M89.1347 69.6989H93.3382V73.7564C93.3382 74.1258 93.1912 74.48 92.9294 74.7411C92.6676 75.0023 92.3125 75.149 91.9422 75.149H90.525C90.1548 75.149 89.7997 75.0023 89.5379 74.7411C89.2761 74.48 89.129 74.1258 89.129 73.7564V69.6989H89.1347Z" fill="black"/>
<path d="M89.1347 69.5433H93.3382V73.6009C93.3382 73.9703 93.1912 74.3245 92.9294 74.5856C92.6676 74.8468 92.3125 74.9935 91.9422 74.9935H90.525C90.1548 74.9935 89.7997 74.8468 89.5379 74.5856C89.2761 74.3245 89.129 73.9703 89.129 73.6009V69.5433H89.1347Z" fill="#BE7C5E"/>
<path opacity="0.1" d="M89.1447 70.1471C90.4994 70.6521 91.9907 70.6561 93.3482 70.1584V69.6438H89.1447V70.1471Z" fill="black"/>
<path d="M91.2506 70.4284C94.578 70.4284 97.2753 67.7376 97.2753 64.4184C97.2753 61.0991 94.578 58.4083 91.2506 58.4083C87.9233 58.4083 85.226 61.0991 85.226 64.4184C85.226 67.7376 87.9233 70.4284 91.2506 70.4284Z" fill="#BE7C5E"/>
<path d="M85.4924 62.1366H96.9806C96.9806 62.1366 95.9999 57.5092 91.6574 57.8047C87.315 58.1002 85.4924 62.1366 85.4924 62.1366Z" fill="#333333"/>
<path d="M85.3522 65.2101C85.6614 65.2101 85.912 64.7411 85.912 64.1625C85.912 63.5839 85.6614 63.1149 85.3522 63.1149C85.043 63.1149 84.7924 63.5839 84.7924 64.1625C84.7924 64.7411 85.043 65.2101 85.3522 65.2101Z" fill="#BE7C5E"/>
<path d="M97.1195 65.2101C97.4287 65.2101 97.6793 64.7411 97.6793 64.1625C97.6793 63.5839 97.4287 63.1149 97.1195 63.1149C96.8103 63.1149 96.5597 63.5839 96.5597 64.1625C96.5597 64.7411 96.8103 65.2101 97.1195 65.2101Z" fill="#BE7C5E"/>
<path opacity="0.1" d="M85.4924 62.292H96.9806C96.9806 62.292 95.9999 57.6646 91.6574 57.9601C87.315 58.2556 85.4924 62.292 85.4924 62.292Z" fill="black"/>
<g opacity="0.5">
<path opacity="0.5" d="M28.7701 55.8904V76.0681H60.6382C60.6382 76.0681 62.9909 80.6869 67.0357 82.03C67.0357 82.03 65.7446 78.7585 67.0924 76.0681H75.9643V55.8904H28.7701Z" fill="url(#paint3_linear)"/>
</g>
<path d="M30.0457 56.5817V75.6679H61.9336C61.9336 75.6679 61.9336 79.4851 65.7602 80.7576C65.7602 80.7576 64.4846 78.2127 65.7602 75.6679H74.6888V56.5817H30.0457Z" fill="white"/>
<path d="M59.3826 60.3989H33.8722V62.9438H59.3826V60.3989Z" fill="#00B493"/>
<path d="M68.3112 64.2162H33.8722V66.761H68.3112V64.2162Z" fill="#00B493"/>
<path d="M64.4846 68.0334H33.8722V70.5783H64.4846V68.0334Z" fill="#00B493"/>
<g opacity="0.5">
<path opacity="0.5" d="M137.189 94.7697V114.947H105.322C105.322 114.947 102.97 119.566 98.9236 120.909C98.9236 120.909 100.215 117.638 98.8669 114.947H89.995V94.7697H137.189Z" fill="url(#paint4_linear)"/>
</g>
<path d="M135.914 95.4611V114.547H104.026C104.026 114.547 104.026 118.365 100.199 119.637C100.199 119.637 101.475 117.092 100.199 114.547H91.2705V95.4611H135.914Z" fill="white"/>
<path d="M122.025 99.2783H96.5143V101.823H122.025V99.2783Z" fill="#00B493"/>
<path d="M130.953 103.096H96.5143V105.64H130.953V103.096Z" fill="#00B493"/>
<path d="M127.127 106.913H96.5143V109.458H127.127V106.913Z" fill="#00B493"/>
<g opacity="0.5">
<path opacity="0.5" d="M40.3915 134.482H39.9663V136.885H40.3915V134.482Z" fill="#47E6B1"/>
<path opacity="0.5" d="M41.3835 135.895V135.471H38.9742V135.895H41.3835Z" fill="#47E6B1"/>
</g>
<g opacity="0.5">
<path opacity="0.5" d="M118.198 60.6818H117.773V63.0852H118.198V60.6818Z" fill="#47E6B1"/>
<path opacity="0.5" d="M119.19 62.0955V61.6714H116.781V62.0955H119.19Z" fill="#47E6B1"/>
</g>
<g opacity="0.5">
<path opacity="0.5" d="M127.268 120.061H126.843V122.464H127.268V120.061Z" fill="#47E6B1"/>
<path opacity="0.5" d="M128.26 121.475V121.051H125.851V121.475H128.26Z" fill="#47E6B1"/>
</g>
<g opacity="0.5">
<path opacity="0.5" d="M100.483 33.5369H100.057V35.9403H100.483V33.5369Z" fill="#47E6B1"/>
<path opacity="0.5" d="M101.475 34.9506V34.5265H99.0653V34.9506H101.475Z" fill="#47E6B1"/>
</g>
<path opacity="0.5" d="M64.7256 134.243C64.6096 134.191 64.5167 134.098 64.4644 133.983C64.4122 133.867 64.4043 133.736 64.4421 133.615C64.4482 133.596 64.452 133.577 64.4535 133.557V133.557C64.4571 133.501 64.4425 133.446 64.4118 133.399C64.3812 133.352 64.3362 133.316 64.2834 133.296C64.2307 133.277 64.1731 133.275 64.1192 133.291C64.0653 133.307 64.018 133.34 63.9844 133.385V133.385C63.973 133.4 63.9634 133.418 63.956 133.436C63.9039 133.551 63.8111 133.644 63.6952 133.696C63.5792 133.748 63.4482 133.756 63.3268 133.718C63.3079 133.712 63.2884 133.708 63.2686 133.707V133.707C63.2126 133.703 63.1568 133.718 63.1097 133.749C63.0626 133.779 63.0266 133.824 63.0072 133.877C62.9877 133.929 62.9859 133.987 63.0018 134.04C63.0178 134.094 63.0507 134.141 63.0957 134.175V134.175C63.1116 134.186 63.1287 134.196 63.1468 134.203C63.2628 134.255 63.3557 134.348 63.4079 134.463C63.4601 134.579 63.4681 134.71 63.4302 134.831C63.4242 134.85 63.4203 134.869 63.4189 134.889V134.889C63.4153 134.945 63.4299 135.001 63.4605 135.048C63.4911 135.095 63.5362 135.13 63.5889 135.15C63.6417 135.169 63.6993 135.171 63.7532 135.155C63.807 135.139 63.8543 135.106 63.888 135.061V135.061C63.8994 135.046 63.9089 135.029 63.9163 135.011C63.9684 134.895 64.0612 134.802 64.1772 134.75C64.2931 134.698 64.4242 134.69 64.5456 134.728C64.5644 134.734 64.5839 134.738 64.6037 134.739V134.739C64.6598 134.743 64.7155 134.728 64.7627 134.698C64.8098 134.667 64.8457 134.622 64.8652 134.569C64.8846 134.517 64.8865 134.459 64.8705 134.406C64.8546 134.352 64.8216 134.305 64.7766 134.271V134.271C64.7608 134.26 64.7436 134.25 64.7256 134.243V134.243Z" fill="#4D8AF0"/>
<path opacity="0.5" d="M36.2673 89.376C36.1513 89.324 36.0584 89.2315 36.0062 89.1158C35.954 89.0002 35.946 88.8694 35.9839 88.7483C35.9899 88.7295 35.9937 88.71 35.9952 88.6903V88.6903C35.9988 88.6344 35.9842 88.5788 35.9536 88.5318C35.9229 88.4848 35.8779 88.4489 35.8252 88.4295C35.7724 88.4101 35.7148 88.4082 35.6609 88.4242C35.607 88.4401 35.5598 88.4729 35.5261 88.5179V88.5179C35.5147 88.5337 35.5052 88.5507 35.4978 88.5687C35.4457 88.6845 35.3529 88.7771 35.2369 88.8292C35.121 88.8813 34.9899 88.8893 34.8685 88.8515C34.8496 88.8455 34.8301 88.8417 34.8104 88.8402C34.7543 88.8366 34.6986 88.8512 34.6514 88.8817C34.6043 88.9123 34.5684 88.9572 34.5489 89.0098C34.5295 89.0624 34.5276 89.1199 34.5436 89.1737C34.5595 89.2274 34.5925 89.2746 34.6375 89.3082V89.3082C34.6533 89.3195 34.6705 89.329 34.6885 89.3364C34.8045 89.3884 34.8974 89.481 34.9496 89.5966C35.0019 89.7123 35.0098 89.8431 34.972 89.9642C34.9659 89.983 34.9621 90.0024 34.9606 90.0221V90.0221C34.9547 90.0791 34.9678 90.1364 34.9978 90.1852C35.0279 90.234 35.0732 90.2715 35.1268 90.292C35.1804 90.3124 35.2393 90.3147 35.2944 90.2984C35.3494 90.282 35.3975 90.248 35.4311 90.2017V90.2017C35.4425 90.1859 35.4521 90.1688 35.4595 90.1508C35.5116 90.0351 35.6044 89.9424 35.7203 89.8903C35.8363 89.8382 35.9673 89.8303 36.0887 89.868C36.1076 89.8741 36.1271 89.8779 36.1469 89.8793V89.8793C36.2029 89.8829 36.2587 89.8684 36.3058 89.8378C36.3529 89.8072 36.3889 89.7623 36.4083 89.7097C36.4278 89.6571 36.4296 89.5996 36.4137 89.5459C36.3977 89.4921 36.3648 89.4449 36.3198 89.4114C36.3038 89.3974 36.2862 89.3855 36.2673 89.376V89.376Z" fill="#4D8AF0"/>
<path opacity="0.5" d="M51.7153 101.676C51.5993 101.624 51.5064 101.532 51.4542 101.416C51.402 101.3 51.394 101.169 51.4319 101.048C51.4379 101.03 51.4417 101.01 51.4432 100.99V100.99C51.4468 100.934 51.4322 100.879 51.4016 100.832C51.3709 100.785 51.3259 100.749 51.2732 100.73C51.2204 100.71 51.1628 100.708 51.1089 100.724C51.055 100.74 51.0077 100.773 50.9741 100.818V100.818C50.9627 100.834 50.9532 100.851 50.9458 100.869C50.8937 100.985 50.8009 101.077 50.6849 101.129C50.569 101.181 50.4379 101.189 50.3165 101.152C50.2976 101.146 50.2781 101.142 50.2584 101.14V101.14C50.2023 101.137 50.1466 101.151 50.0994 101.182C50.0523 101.212 50.0164 101.257 49.9969 101.31C49.9775 101.362 49.9756 101.42 49.9916 101.474C50.0075 101.527 50.0405 101.575 50.0855 101.608C50.1013 101.62 50.1185 101.629 50.1365 101.636C50.2525 101.688 50.3454 101.781 50.3976 101.897C50.4499 102.012 50.4578 102.143 50.42 102.264C50.4139 102.283 50.4101 102.302 50.4086 102.322V102.322C50.4027 102.379 50.4158 102.436 50.4458 102.485C50.4759 102.534 50.5212 102.572 50.5748 102.592C50.6284 102.612 50.6873 102.615 50.7423 102.598C50.7974 102.582 50.8455 102.548 50.8791 102.502V102.502C50.8905 102.486 50.9001 102.469 50.9075 102.451C50.9596 102.335 51.0524 102.242 51.1683 102.19C51.2843 102.138 51.4153 102.13 51.5367 102.168C51.5556 102.174 51.5751 102.178 51.5948 102.179V102.179C51.6509 102.183 51.7067 102.168 51.7538 102.138C51.8009 102.107 51.8369 102.062 51.8563 102.01C51.8758 101.957 51.8776 101.9 51.8617 101.846C51.8457 101.792 51.8128 101.745 51.7678 101.711V101.711C51.7518 101.697 51.7342 101.686 51.7153 101.676V101.676Z" fill="#4D8AF0"/>
<path opacity="0.5" d="M139.868 135.042C139.752 134.99 139.659 134.897 139.607 134.781C139.554 134.666 139.547 134.535 139.584 134.414C139.59 134.395 139.594 134.376 139.596 134.356V134.356C139.599 134.3 139.585 134.244 139.554 134.197C139.523 134.15 139.478 134.115 139.426 134.095C139.373 134.076 139.315 134.074 139.261 134.09C139.208 134.106 139.16 134.139 139.127 134.184V134.184C139.115 134.199 139.106 134.216 139.098 134.234C139.046 134.35 138.953 134.443 138.837 134.495C138.721 134.547 138.59 134.555 138.469 134.517C138.45 134.511 138.431 134.507 138.411 134.506C138.355 134.502 138.299 134.517 138.252 134.547C138.205 134.578 138.169 134.623 138.149 134.675C138.13 134.728 138.128 134.786 138.144 134.839C138.16 134.893 138.193 134.94 138.238 134.974C138.254 134.985 138.271 134.995 138.289 135.002C138.405 135.054 138.498 135.147 138.55 135.262C138.602 135.378 138.61 135.509 138.572 135.63C138.566 135.649 138.563 135.668 138.561 135.688C138.555 135.745 138.568 135.802 138.598 135.851C138.628 135.9 138.674 135.937 138.727 135.958C138.781 135.978 138.84 135.98 138.895 135.964C138.95 135.948 138.998 135.914 139.032 135.867C139.043 135.852 139.053 135.834 139.06 135.816C139.112 135.701 139.205 135.608 139.321 135.556C139.437 135.504 139.568 135.496 139.689 135.534C139.708 135.54 139.728 135.544 139.747 135.545C139.803 135.549 139.859 135.534 139.906 135.503C139.953 135.473 139.989 135.428 140.009 135.375C140.028 135.323 140.03 135.265 140.014 135.212C139.998 135.158 139.965 135.111 139.92 135.077V135.077C139.904 135.063 139.887 135.051 139.868 135.042V135.042Z" fill="#4D8AF0"/>
<path opacity="0.5" d="M28.9119 127.554C29.3815 127.554 29.7622 127.174 29.7622 126.706C29.7622 126.237 29.3815 125.858 28.9119 125.858C28.4422 125.858 28.0615 126.237 28.0615 126.706C28.0615 127.174 28.4422 127.554 28.9119 127.554Z" fill="#F55F44"/>
<path opacity="0.5" d="M124.859 43.4335C125.329 43.4335 125.709 43.0537 125.709 42.5852C125.709 42.1167 125.329 41.7369 124.859 41.7369C124.39 41.7369 124.009 42.1167 124.009 42.5852C124.009 43.0537 124.39 43.4335 124.859 43.4335Z" fill="#4D8AF0"/>
<path opacity="0.5" d="M42.8009 45.13C43.2705 45.13 43.6512 44.7502 43.6512 44.2817C43.6512 43.8133 43.2705 43.4335 42.8009 43.4335C42.3313 43.4335 41.9506 43.8133 41.9506 44.2817C41.9506 44.7502 42.3313 45.13 42.8009 45.13Z" fill="#47E6B1"/>
<path opacity="0.5" d="M125.709 83.3024C126.179 83.3024 126.56 82.9226 126.56 82.4541C126.56 81.9856 126.179 81.6058 125.709 81.6058C125.24 81.6058 124.859 81.9856 124.859 82.4541C124.859 82.9226 125.24 83.3024 125.709 83.3024Z" fill="#F55F44"/>
</g>
<defs>
<linearGradient id="paint0_linear" x1="62.7508" y1="133.249" x2="102.679" y2="38.0914" gradientUnits="userSpaceOnUse">
<stop stop-color="#808080" stop-opacity="0.25"/>
<stop offset="0.54" stop-color="#808080" stop-opacity="0.12"/>
<stop offset="1" stop-color="#808080" stop-opacity="0.1"/>
</linearGradient>
<linearGradient id="paint1_linear" x1="15000.5" y1="19394.2" x2="15000.5" y2="13835.2" gradientUnits="userSpaceOnUse">
<stop stop-color="#808080" stop-opacity="0.25"/>
<stop offset="0.54" stop-color="#808080" stop-opacity="0.12"/>
<stop offset="1" stop-color="#808080" stop-opacity="0.1"/>
</linearGradient>
<linearGradient id="paint2_linear" x1="16817.1" y1="12051.6" x2="16817.1" y2="6490.32" gradientUnits="userSpaceOnUse">
<stop stop-color="#808080" stop-opacity="0.25"/>
<stop offset="0.54" stop-color="#808080" stop-opacity="0.12"/>
<stop offset="1" stop-color="#808080" stop-opacity="0.1"/>
</linearGradient>
<linearGradient id="paint3_linear" x1="17797.4" y1="11230.6" x2="17797.4" y2="6397.63" gradientUnits="userSpaceOnUse">
<stop stop-color="#808080" stop-opacity="0.25"/>
<stop offset="0.54" stop-color="#808080" stop-opacity="0.12"/>
<stop offset="1" stop-color="#808080" stop-opacity="0.1"/>
</linearGradient>
<linearGradient id="paint4_linear" x1="-155886" y1="18457.9" x2="-155886" y2="13624.9" gradientUnits="userSpaceOnUse">
<stop stop-color="#808080" stop-opacity="0.25"/>
<stop offset="0.54" stop-color="#808080" stop-opacity="0.12"/>
<stop offset="1" stop-color="#808080" stop-opacity="0.1"/>
</linearGradient>
<clipPath id="clip0">
<rect x="28.0615" y="33.5369" width="111.961" height="103.348" fill="white"/>
</clipPath>
</defs>
</svg>
