<svg width="39" height="39" viewBox="0 0 39 39" fill="none" xmlns="http://www.w3.org/2000/svg">
<circle cx="19.5" cy="19.5" r="19.5" fill="white"/>
<path d="M25.4016 19.6089H24.0095C24.1514 19.9974 24.2289 20.4166 24.2289 20.8536V26.1147C24.2289 26.2969 24.1972 26.4717 24.1395 26.6344H26.4409C27.3006 26.6344 27.9999 25.935 27.9999 25.0753V22.2073C28 20.7745 26.8343 19.6089 25.4016 19.6089Z" fill="#028971"/>
<path d="M13.771 20.8536C13.771 20.4166 13.8486 19.9974 13.9905 19.6089H12.5984C11.1656 19.6089 10 20.7745 10 22.2073V25.0754C10 25.935 10.6994 26.6344 11.559 26.6344H13.8604C13.8028 26.4717 13.771 26.2969 13.771 26.1147V20.8536V20.8536Z" fill="#028971"/>
<path d="M20.5911 18.2552H17.4087C15.9759 18.2552 14.8103 19.4209 14.8103 20.8537V26.1148C14.8103 26.4018 15.043 26.6345 15.33 26.6345H22.6698C22.9569 26.6345 23.1895 26.4018 23.1895 26.1148V20.8537C23.1895 19.4209 22.0239 18.2552 20.5911 18.2552Z" fill="#028971"/>
<path d="M19.0001 11.3655C17.2771 11.3655 15.8752 12.7673 15.8752 14.4904C15.8752 15.6592 16.5203 16.68 17.473 17.2159C17.9249 17.4701 18.4458 17.6153 19.0001 17.6153C19.5545 17.6153 20.0754 17.4701 20.5273 17.2159C21.48 16.68 22.1251 15.6592 22.1251 14.4904C22.1251 12.7673 20.7232 11.3655 19.0001 11.3655Z" fill="#028971"/>
<path d="M13.5128 14.2781C12.2241 14.2781 11.1758 15.3264 11.1758 16.6151C11.1758 17.9037 12.2241 18.9521 13.5128 18.9521C13.8397 18.9521 14.151 18.8844 14.4337 18.7627C14.9226 18.5522 15.3257 18.1796 15.5751 17.7129C15.7502 17.3854 15.8498 17.0117 15.8498 16.6151C15.8498 15.3265 14.8015 14.2781 13.5128 14.2781Z" fill="#028971"/>
<path d="M24.4874 14.2781C23.1988 14.2781 22.1504 15.3264 22.1504 16.6151C22.1504 17.0117 22.25 17.3854 22.4251 17.7129C22.6745 18.1797 23.0776 18.5522 23.5665 18.7627C23.8492 18.8844 24.1605 18.9521 24.4874 18.9521C25.7761 18.9521 26.8244 17.9037 26.8244 16.6151C26.8244 15.3264 25.7761 14.2781 24.4874 14.2781Z" fill="#028971"/>
</svg>
