<svg width="42" height="42" viewBox="0 0 42 42" fill="none" xmlns="http://www.w3.org/2000/svg">
<path d="M10.4052 25.6258V17.6024C10.4052 17.0234 10.4881 16.4588 10.6436 15.9198H5.23334C4.35599 15.9198 3.56035 16.2768 2.98421 16.8529C2.40807 17.4291 2.05078 18.225 2.05078 19.1021V25.4864C2.05078 26.2635 2.33437 26.979 2.80412 27.5356C3.04829 27.8253 3.34373 28.0707 3.67635 28.2585V37.5379C3.67635 38.2163 4.22621 38.7662 4.90425 38.7662H12.4479V30.1878C11.1582 29.0234 10.4052 27.3645 10.4052 25.6258Z" fill="#FFC46A"/>
<path d="M8.68283 14.4673C11.3357 14.4673 13.4938 12.3092 13.4938 9.6563C13.4938 7.00342 11.3357 4.84529 8.68283 4.84529C6.02995 4.84529 3.87183 7.00342 3.87183 9.6563C3.87183 12.3092 6.02995 14.4673 8.68283 14.4673Z" fill="#FFC46A"/>
<path d="M25.2198 13.9181H16.5454C15.5302 13.9181 14.609 14.3318 13.9418 14.9986C13.2747 15.6657 12.8613 16.587 12.8613 17.6024V25.6258C12.8613 26.5256 13.1895 27.3542 13.7326 27.998C14.0546 28.3796 14.4532 28.6952 14.9041 28.9208V40.7718C14.9041 41.4501 15.454 42 16.1323 42H25.6332C26.3116 42 26.8614 41.4501 26.8614 40.7718V28.9208C27.3123 28.6952 27.7109 28.3796 28.0326 27.998C28.5761 27.3542 28.9042 26.5259 28.9042 25.6258V17.6024C28.9042 16.587 28.4908 15.6657 27.8237 14.9989C27.1566 14.3318 26.2353 13.9181 25.2198 13.9181Z" fill="#FFC46A"/>
<path d="M20.8809 11.4619C24.041 11.4619 26.6118 8.8911 26.6118 5.73097C26.6118 2.57085 24.041 0 20.8809 0C17.7207 0 15.1499 2.57085 15.1499 5.73097C15.1499 8.8911 17.7207 11.4619 20.8809 11.4619Z" fill="#FFC46A"/>
<path d="M38.946 16.8529C38.3699 16.2768 37.5743 15.9198 36.6969 15.9198H31.122C31.2771 16.4588 31.3604 17.0234 31.3604 17.6024V25.6258C31.3604 27.3642 30.6074 29.0234 29.3176 30.1878V38.7572C29.366 38.763 29.4157 38.7662 29.466 38.7662H37.0257C37.704 38.7662 38.2539 38.2163 38.2539 37.5379V28.2585C38.5862 28.071 38.8816 27.8253 39.1261 27.5356C39.5959 26.979 39.8795 26.2635 39.8795 25.4864V19.1021C39.8795 18.225 39.5222 17.4291 38.946 16.8529Z" fill="#FFC46A"/>
<path d="M33.2441 14.4673C35.897 14.4673 38.0551 12.3092 38.0551 9.6563C38.0551 7.00342 35.897 4.84529 33.2441 4.84529C30.5916 4.84529 28.4331 7.00342 28.4331 9.6563C28.4331 12.3092 30.5916 14.4673 33.2441 14.4673Z" fill="#FFC46A"/>
<rect x="18" y="19" width="5" height="5" fill="white"/>
<rect x="20" y="29" width="1" height="5" fill="white"/>
</svg>
