<svg width="24" height="18" viewBox="0 0 24 18" fill="none" xmlns="http://www.w3.org/2000/svg">
<g id="person-add">
<path id="Shape" fill-rule="evenodd" clip-rule="evenodd" d="M14.9753 8.55738C17.3286 8.55738 19.254 6.63197 19.254 4.27869C19.254 1.92541 17.3286 0 14.9753 0C12.6221 0 10.6966 1.92541 10.6966 4.27869C10.6966 6.63197 12.6221 8.55738 14.9753 8.55738V8.55738ZM5.34836 6.41801V3.20899H3.20902V6.41801H0V8.55736H3.20902V11.7664H5.34836V8.55736H8.55738V6.41801H5.34836V6.41801ZM14.9754 10.6967C12.0873 10.6967 6.41799 12.0873 6.41799 14.9754V17.1148H23.5327V14.9754C23.5327 12.0873 17.8635 10.6967 14.9754 10.6967V10.6967Z" fill="#00B493"/>
</g>
</svg>
