<svg width="22" height="22" viewBox="0 0 22 22" fill="none" xmlns="http://www.w3.org/2000/svg">
<g id="search">
<path id="Shape" fill-rule="evenodd" clip-rule="evenodd" d="M15.7143 13.8286H14.7086L14.3314 13.4514C15.5886 12.0686 16.3429 10.1829 16.3429 8.17143C16.3429 3.64571 12.6971 0 8.17143 0C3.64571 0 0 3.64571 0 8.17143C0 12.6971 3.64571 16.3429 8.17143 16.3429C10.1829 16.3429 12.0686 15.5886 13.4514 14.3314L13.8286 14.7086V15.7143L20.1143 22L22 20.1143L15.7143 13.8286V13.8286ZM8.17153 13.8285C5.02867 13.8285 2.51439 11.3142 2.51439 8.17135C2.51439 5.02849 5.02867 2.51421 8.17153 2.51421C11.3144 2.51421 13.8287 5.02849 13.8287 8.17135C13.8287 11.3142 11.3144 13.8285 8.17153 13.8285V13.8285Z" fill="#00B493"/>
</g>
</svg>
