<svg width="25" height="25" viewBox="0 0 25 25" fill="none" xmlns="http://www.w3.org/2000/svg">
<path d="M12.5 25C19.3927 25 25 19.3927 25 12.5C25 5.60729 19.3927 0 12.5 0C5.60729 0 0 5.60729 0 12.5C0 19.3927 5.60729 25 12.5 25ZM17.7083 7.35938C18.8573 7.35938 19.7917 8.29375 19.7917 9.44271C19.7917 10.5917 18.8573 11.526 17.7083 11.526C16.5594 11.526 15.625 10.5917 15.625 9.44271C15.625 8.29375 16.5594 7.35938 17.7083 7.35938ZM7.29167 7.35938C8.44063 7.35938 9.375 8.29375 9.375 9.44271C9.375 10.5917 8.44063 11.526 7.29167 11.526C6.14271 11.526 5.20833 10.5917 5.20833 9.44271C5.20833 8.29375 6.14271 7.35938 7.29167 7.35938ZM3.79792 14.901C3.94583 14.701 4.17917 14.5833 4.42708 14.5833H20.5729C20.8208 14.5833 21.0542 14.701 21.2021 14.901C21.349 15.101 21.3927 15.3583 21.3187 15.5958C20.1104 19.4885 16.5667 22.1042 12.5 22.1042C8.43333 22.1042 4.88854 19.4885 3.68125 15.5958C3.60729 15.3594 3.65104 15.101 3.79792 14.901Z" fill="#04B392"/>
</svg>
